<?xml version="1.0" standalone="no"?>
<!DOCTYPE svg PUBLIC "-//W3C//DTD SVG 20010904//EN"
 "http://www.w3.org/TR/2001/REC-SVG-20010904/DTD/svg10.dtd">
<svg version="1.0" xmlns="http://www.w3.org/2000/svg"
 width="244.000000pt" height="256.000000pt" viewBox="0 0 244.000000 256.000000"
 preserveAspectRatio="xMidYMid meet">

<g transform="translate(0.000000,256.000000) scale(0.100000,-0.100000)"
fill="#000000" stroke="none">
<path d="M962 2237 l-263 -128 -97 -195 -96 -195 28 -167 c15 -92 30 -176 33
-188 3 -17 -29 -46 -186 -168 l-190 -148 67 -99 67 -99 135 0 c118 0 149 4
249 30 63 17 116 28 118 26 3 -2 66 -491 73 -562 0 -1 11 -4 25 -6 32 -7 32
-7 0 252 -28 220 -27 231 20 302 19 28 31 37 52 36 15 0 42 2 60 6 29 7 33 12
37 49 11 90 16 247 9 247 -5 0 -14 -30 -21 -66 -7 -36 -19 -81 -27 -101 l-15
-35 -67 7 c-38 3 -78 8 -89 10 -49 10 -94 111 -94 210 0 30 6 37 78 81 111 69
314 225 451 347 29 26 90 65 135 87 71 34 105 44 256 68 165 26 175 29 178 51
4 26 28 27 -223 -9 -119 -17 -152 -26 -220 -59 -44 -21 -237 -147 -430 -281
-319 -221 -417 -283 -493 -311 -23 -8 -21 -5 13 23 22 18 51 43 65 54 l25 22
-27 191 -27 191 85 175 c48 97 96 183 109 194 28 21 360 173 445 204 61 21
127 19 345 -9 272 -35 314 -49 418 -146 l58 -53 24 -118 c14 -64 25 -119 25
-121 0 -3 -10 -6 -23 -8 l-24 -3 14 -75 c29 -167 29 -149 -7 -156 -25 -5 -36
-16 -52 -49 -26 -53 -20 -68 32 -95 45 -23 57 -40 130 -182 65 -125 65 -140 0
-173 -62 -31 -68 -31 -80 1 -7 16 -16 24 -24 21 -8 -3 -31 -9 -50 -13 -41 -7
-42 -11 -20 -42 8 -12 13 -26 10 -31 -5 -8 -50 -21 -119 -36 -16 -3 -48 -24
-71 -45 -43 -40 -43 -40 -29 -73 9 -20 29 -39 51 -49 21 -10 57 -29 82 -43 51
-28 80 -30 168 -11 34 7 62 9 62 4 0 -4 -4 -8 -10 -8 -18 0 -11 -59 10 -77 52
-45 68 -66 63 -79 -4 -10 -10 -11 -25 -3 -18 10 -19 8 -13 -38 l7 -48 -35 34
-36 34 -3 -58 c-3 -57 -3 -58 -41 -71 l-38 -13 6 32 7 32 -29 -27 c-16 -16
-32 -28 -35 -28 -3 0 -6 22 -6 49 0 27 -3 54 -6 60 -13 21 -38 11 -49 -19 -6
-16 -14 -30 -18 -30 -3 0 -9 23 -13 51 -5 40 -11 52 -27 56 -16 5 -19 11 -14
30 6 27 -17 42 -39 24 -10 -8 -23 -5 -54 11 -22 13 -44 20 -48 16 -4 -4 -8
-31 -10 -60 l-3 -53 13 39 c13 43 29 36 26 -12 -3 -44 1 -49 15 -17 l14 30 1
-27 c0 -19 -9 -31 -35 -47 l-35 -20 0 23 c0 15 -9 27 -25 34 -23 11 -27 9 -37
-13 -14 -32 -19 -31 -41 6 -17 31 -18 31 -37 14 -20 -18 -20 -17 -20 39 0 36
-4 55 -10 51 -6 -3 -10 -18 -10 -33 0 -15 -4 -34 -10 -42 -11 -17 -15 -8 -24
54 -7 50 -10 52 -43 28 l-28 -20 3 52 c2 45 1 49 -11 33 -13 -16 -15 -15 -21
15 l-7 33 -20 -24 c-16 -20 -22 -21 -35 -10 -22 18 -44 64 -44 91 0 43 -49
213 -79 278 -17 36 -31 61 -31 55 0 -5 -5 -86 -11 -180 -8 -142 -7 -196 7
-325 9 -85 17 -156 18 -156 0 -1 43 -29 94 -63 102 -66 164 -89 314 -116 l97
-17 6 -57 c10 -83 13 -91 41 -91 25 0 25 0 18 75 l-7 75 100 0 c119 0 318 33
353 59 13 9 35 37 48 62 26 47 26 63 3 259 -8 62 -13 78 -35 95 -31 25 -36 68
-13 118 15 30 16 44 8 74 -6 20 -9 38 -8 39 1 1 19 9 41 18 l39 16 -6 50 c-4
34 -28 94 -73 183 l-67 132 12 60 c12 60 10 87 -24 248 -2 12 3 17 21 17 29 0
29 -8 0 169 l-24 143 -63 59 c-35 33 -93 77 -129 98 l-65 39 -305 39 -305 39
-263 -129z m1149 -1316 c4 -19 2 -45 -3 -57 -11 -22 -19 -25 -133 -47 -30 -5
-88 27 -118 67 -15 19 -27 38 -27 42 0 3 25 4 56 2 36 -3 77 1 117 13 84 24
100 22 108 -20z"/>
<path d="M1263 2252 c-11 -7 203 -35 437 -58 l45 -4 -40 16 c-77 30 -217 54
-325 54 -58 0 -111 -4 -117 -8z"/>
<path d="M1190 2201 c0 -9 248 -26 257 -18 2 3 -19 10 -47 16 -61 13 -210 15
-210 2z"/>
<path d="M1129 1706 c-129 -56 -286 -167 -338 -237 -16 -22 35 8 191 112 202
134 238 159 228 159 -3 0 -39 -16 -81 -34z"/>
<path d="M1700 1635 c-87 -16 -100 -23 -100 -50 0 -21 3 -22 38 -14 74 17 90
10 30 -15 -50 -21 -138 -80 -138 -93 0 -2 29 -2 64 2 54 6 64 5 70 -10 5 -15
16 -17 71 -13 79 7 111 26 137 84 23 54 18 76 -26 104 -37 22 -53 23 -146 5z"/>
<path d="M912 1238 c3 -8 0 -22 -8 -33 -22 -30 -16 -52 21 -75 27 -17 41 -20
62 -13 15 5 28 14 30 19 6 19 -62 109 -86 112 -17 3 -22 0 -19 -10z"/>
</g>
</svg>
